# AST/ASF file generated using VICON BodyLanguage
# -----------------------------------------------
:version 1.10
:name VICON
:units
  mass 1.0
  length 0.45
  angle deg
:documentation
   .ast/.asf automatically generated from VICON data using
   VICON BodyBuilder and BodyLanguage model FoxedUp or BRILLIANT.MOD
:root
   order TX TY TZ RX RY RZ
   axis XYZ
   position 0 0 0  
   orientation 0 0 0 
:bonedata
  begin
     id 1 
     name lhipjoint
     direction 0.575328 -0.747301 0.332475 
     length 2.40933 
     axis 0 0 0  XYZ
  end
  begin
     id 2 
     name lfemur
     direction 0.34202 -0.939693 0  
     length 7.31453  
     axis 0 0 20  XYZ
    dof rx ry rz
    limits (-160.0 20.0)
           (-70.0 70.0)
           (-60.0 70.0)
  end
  begin
     id 3 
     name ltibia
     direction 0.34202 -0.939693 0   
     length 7.82185   
     axis 0 0 20   XYZ
    dof rx
    limits (-10.0 170.0)
  end
  begin
     id 4 
     name lfoot
     direction 0.0795993 -0.218697 0.972541   
     length 2.19173   
     axis -90 7.62852e-016 20   XYZ
    dof rx rz
    limits (-45.0 90.0)
           (-70.0 20.0)
  end
  begin
     id 5 
     name ltoes
     direction 1.53537e-011 -4.21894e-011 1   
     length 1.10023   
     axis -90 7.62852e-016 20   XYZ
    dof rx
    limits (-90.0 20.0)
  end
  begin
     id 6 
     name rhipjoint
     direction -0.513884 -0.783789 0.348708   
     length 2.29716  
     axis 0 0 0  XYZ 
  end
  begin
     id 7 
     name rfemur
     direction -0.34202 -0.939693 0   
     length 7.59573   
     axis 0 0 -20   XYZ
    dof rx ry rz
    limits (-160.0 20.0)
           (-70.0 70.0)
           (-70.0 60.0)
  end
  begin
     id 8 
     name rtibia
     direction -0.34202 -0.939693 0   
     length 7.66402   
     axis 0 0 -20   XYZ
    dof rx
    limits (-10.0 170.0)
 end
 begin
     id 9 
     name rfoot
     direction -0.137793 -0.378584 0.915253   
     length 2.27056  
     axis -90 -7.62852e-016 -20   XYZ
    dof rx rz
    limits (-45.0 90.0)
           (-20.0 70.0)
  end
  begin
     id 10 
     name rtoes
     direction -1.53493e-011 -4.22159e-011 1   
     length 1.11766   
     axis -90 -7.62852e-016 -20   XYZ
    dof rx
    limits (-90.0 20.0)
  end
  begin
     id 11 
     name lowerback
     direction -0.00732775 0.998356 -0.05685   
     length 2.16513   
     axis 0 0 0   XYZ
    dof rx ry rz
    limits (-20.0 45.0)
           (-30.0 30.0)
           (-30.0 30.0)
  end
  begin
     id 12 
     name upperback
     direction 0.0218081 0.999627 -0.0164647   
     length 2.16755   
     axis 0 0 0   XYZ
    dof rx ry rz
    limits (-20.0 45.0)
           (-30.0 30.0)
           (-30.0 30.0)
  end
  begin
     id 13 
     name thorax
     direction 0.02365 0.999661 0.0108914   
     length 2.16932   
     axis 0 0 0   XYZ
    dof rx ry rz
    limits (-20.0 45.0)
           (-30.0 30.0)
           (-30.0 30.0)
  end
  begin
     id 14 
     name lowerneck
     direction -0.0523929 0.978385 0.200044   
     length 1.63877   
     axis 0 0 0   XYZ
    dof rx ry rz
    limits (-20.0 45.0)
           (-30.0 30.0)
           (-30.0 30.0)
  end
  begin
     id 15 
     name upperneck
     direction 0.0448674 0.981321 -0.187074   
     length 1.69014   
     axis 0 0 0   XYZ
    dof rx ry rz
    limits (-20.0 45.0)
           (-30.0 30.0)
           (-30.0 30.0)
  end
  begin
     id 16
     name head
     direction 0.0199089 0.996118 -0.0857429  
     length 1.70094  
     axis 0 0 0   XYZ
    dof rx ry rz
    limits (-20.0 45.0)
           (-30.0 30.0)
           (-30.0 30.0)
  end
  begin
     id 17 
     name lclavicle
     direction 0.940366 0.30191 -0.156722  
     length 3.37521  
     axis 0 0 0   XYZ
    dof ry rz
    limits (-20.0 10.0)
           (0.0 20.0)
  end
  begin
     id 18 
     name lhumerus
     direction 1 -4.4897e-011 -1.7911e-027   
     length 5.25287   
     axis 180 -30 -90   XYZ
    dof rx ry rz
    limits (-60.0 90.0)
           (-90.0 90.0)
           (-90.0 90.0)
  end
  begin
     id 19
     name lradius
     direction 1 -4.48951e-011 1.04424e-027   
     length 3.51014   
     axis 180 -30 -90   XYZ
    dof rx
    limits (-10.0 170.0)
  end
  begin
     id 20
     name lwrist
     direction 1 -4.48997e-011 -9.5942e-028   
     length 1.75507   
     axis 8.48502e-016 90 90   XYZ
    dof ry
    limits (-180.0 0.0)
 end
  begin
     id 21 
     name lhand
     direction 1 -4.48831e-011 -1.90777e-027   
     length 0.706179   
     axis 1.22306e-015 90 90   XYZ
    dof rx rz
    limits (-90.0 90.0)
           (-45.0 45.0)
  end
  begin
     id 22 
     name lfingers
     direction 1 -4.49108e-011 -3.85244e-027   
     length 0.569339   
     axis 2.44611e-015 90 90   XYZ
    dof rx
    limits (0.0 90.0)
  end
  begin
     id 23
     name lthumb
     direction 0.707107 -6.34953e-011 0.707107   
     length 0.817461   
     axis -90 45 -1.62303e-014   XYZ
    dof rx rz
    limits (-45.0 45.0)
           (-45.0 45.0)
  end
  begin
     id 24 
     name rclavicle
     direction -0.905329 0.382405 -0.184787   
     length 3.30787  
     axis 0 0 0   XYZ 
    dof ry rz
    limits (-10.0 20.0)
           (-20.0 0.0)
  end
  begin
     id 25 
     name rhumerus
     direction -1 -4.48953e-011 -9.15316e-029  
     length 5.28721   
     axis 180 30 90   XYZ
    dof rx ry rz
    limits (-90.0 60.0)
           (-90.0 90.0)
           (-90.0 90.0)
  end
  begin
     id 26 
     name rradius
     direction -1 -4.48987e-011 9.37824e-028   
     length 3.50544   
     axis 180 30 90   XYZ
    dof rx
    limits (-10.0 170.0)
  end
  begin
     id 27 
     name rwrist
     direction -1 -4.48967e-011 -9.58414e-028   
     length 1.75272   
     axis 8.48502e-016 -90 -90   XYZ
    dof ry
    limits (-180.0 0.0)
  end
  begin
     id 28
     name rhand
     direction -1 -4.48904e-011 -1.91266e-027   
     length 0.884996   
     axis 1.22306e-015 -90 -90   XYZ
    dof rx rz
    limits (-90.0 90.0)
           (-45.0 45.0)
  end
  begin
     id 29
     name rfingers
     direction -1 -4.4909e-011 -3.85015e-027   
     length 0.713507   
     axis 2.44611e-015 -90 -90   XYZ
    dof rx
    limits (0.0 90.0)
  end
  begin
     id 30
     name rthumb
     direction -0.707107 -6.34853e-011 0.707107   
     length 1.02446   
     axis -90 -45 1.62303e-014   XYZ
    dof rx rz
    limits (-45.0 45.0)
           (-45.0 45.0)
  end
:hierarchy
  begin
    root lhipjoint rhipjoint lowerback
    lhipjoint lfemur
    lfemur ltibia
    ltibia lfoot
    lfoot ltoes
    rhipjoint rfemur
    rfemur rtibia
    rtibia rfoot
    rfoot rtoes
    lowerback upperback
    upperback thorax
    thorax lowerneck lclavicle rclavicle
    lowerneck upperneck
    upperneck head
    lclavicle lhumerus
    lhumerus lradius
    lradius lwrist
    lwrist lhand lthumb
    lhand lfingers
    rclavicle rhumerus
    rhumerus rradius
    rradius rwrist
    rwrist rhand rthumb
    rhand rfingers
  end

#!OML:ASF F:\twosubjects\two\Thursday\Session 1\justin.ASF
:FULLY-SPECIFIED
:DEGREES
189
root 9.59666 18.0869 10.8484 -169.608 4.07743 -180.988
lowerback 1.5137 0.187863 -11.3862
upperback 2.96499 0.59752 8.42285
thorax 2.17222 0.13333 15.9221
lowerneck -23.2405 -7.12773 -15.423
upperneck 28.1197 -4.84028 4.62187
head 14.0975 -2.84772 3.5776
rclavicle 1.19271e-014 1.00187e-013
rhumerus -25.0912 -2.35135 -76.2927
rradius 25.7087
rwrist -4.82689
rhand -13.2206 13.0232
rfingers 7.12502
rthumb 12.8805 -16.5594
lclavicle 1.19271e-014 1.00187e-013
lhumerus -27.6377 4.59913 98.5169
lradius 31.9695
lwrist -4.12258
lhand -6.24711 38.1359
lfingers 7.12502
lthumb 19.5948 67.1685
rfemur -36.1942 -8.08125 24.4862
rtibia 39.8022
rfoot -17.1535 0.383616
rtoes -0.492346
lfemur -5.5559 6.35108 -24.6694
ltibia 16.3638
lfoot -17.1991 -0.187216
ltoes -5.86984
190
root 9.59931 18.0934 10.8795 -169.441 4.08136 -180.837
lowerback 1.59552 0.256774 -11.2019
upperback 2.90495 0.695292 8.49841
thorax 2.02515 0.20799 15.892
lowerneck -23.3307 -7.18514 -15.3506
upperneck 28.1259 -4.86334 4.41437
head 14.1147 -2.87804 3.47385
rclavicle 7.95139e-016 -3.02153e-014
rhumerus -25.3885 -2.1416 -76.1752
rradius 25.9889
rwrist -4.74669
rhand -13.4581 12.9128
rfingers 7.12502
rthumb 12.6516 -16.684
lclavicle 7.95139e-016 -3.02153e-014
lhumerus -27.9977 4.20736 98.7861
lradius 31.9962
lwrist -4.08169
lhand -4.81723 38.4689
lfingers 7.12502
lthumb 20.969 67.3554
rfemur -36.3747 -8.34359 24.6813
rtibia 39.6932
rfoot -17.3742 1.08736
rtoes -2.34579
lfemur -5.78798 6.08848 -24.5574
ltibia 16.3133
lfoot -17.0449 0.320496
ltoes -6.7667
191
root 9.60829 18.1044 10.9108 -169.15 4.1806 -180.689
lowerback 1.66934 0.255617 -11.2678
upperback 2.67984 0.696122 8.67587
thorax 1.73984 0.247238 16.1473
lowerneck -23.2159 -7.14399 -15.483
upperneck 28.1869 -4.70249 4.27768
head 14.1027 -2.83779 3.47479
rclavicle 1.43125e-014 4.6118e-014
rhumerus -25.7925 -1.77313 -75.9436
rradius 26.1459
rwrist -4.66978
rhand -13.7038 12.5034
rfingers 7.12502
rthumb 12.4147 -17.1079
lclavicle 1.43125e-014 4.6118e-014
lhumerus -28.5999 4.29518 99.0542
lradius 32.0148
lwrist -4.16988
lhand -3.15162 38.802
lfingers 7.12502
lthumb 22.5684 67.5028
rfemur -36.7224 -8.36058 24.8482
rtibia 39.6246
rfoot -17.7551 1.52501
rtoes -6.41703
lfemur -6.1942 5.70398 -24.4363
ltibia 16.351
lfoot -16.9435 0.811884
ltoes -6.62681
192
root 9.6235 18.1184 10.9391 -168.862 4.27086 -180.65
lowerback 1.62698 0.213013 -11.4117
upperback 2.55947 0.642971 8.77191
thorax 1.65354 0.231889 16.359
lowerneck -23.3113 -7.04265 -15.6422
upperneck 28.1999 -4.49754 4.34139
head 14.1113 -2.75814 3.56686
rclavicle 7.95139e-016 4.77083e-014
rhumerus -25.9074 -1.43775 -75.8558
rradius 26.2521
rwrist -4.9249
rhand -14.047 12.152
rfingers 7.12502
rthumb 12.0837 -17.4791
lclavicle 7.95139e-016 4.77083e-014
lhumerus -28.9383 4.44367 99.1428
lradius 31.8502
lwrist -4.59194
lhand -2.32125 38.8616
lfingers 7.12502
lthumb 23.3652 67.4634
rfemur -37.0801 -8.14292 24.84
rtibia 39.6104
rfoot -18.2726 1.50263
rtoes -11.7847
lfemur -6.65695 5.65312 -24.3992
ltibia 16.4569
lfoot -16.9311 0.965819
ltoes -6.6066
193
root 9.63122 18.1292 10.971 -168.557 4.36298 -180.74
lowerback 1.47189 0.210133 -11.3954
upperback 2.60651 0.646595 8.72303
thorax 1.79088 0.217313 16.2912
lowerneck -23.707 -6.99403 -15.7193
upperneck 28.0832 -4.39023 4.43427
head 14.1327 -2.71273 3.62935
rclavicle 2.14687e-014 5.56597e-014
rhumerus -25.7073 -1.4775 -75.8338
rradius 26.3342
rwrist -5.32496
rhand -14.4447 11.7226
rfingers 7.12502
rthumb 11.7003 -17.9306
lclavicle 2.14687e-014 5.56597e-014
lhumerus -28.9956 4.08729 99.2671
lradius 31.8215
lwrist -4.60233
lhand -2.80798 39.2058
lfingers 7.12502
lthumb 22.8982 67.8662
rfemur -37.5168 -8.1659 24.725
rtibia 39.6626
rfoot -18.6768 1.57461
rtoes -15.1287
lfemur -7.17645 5.83841 -24.5383
ltibia 16.5168
lfoot -16.8086 0.88798
ltoes -7.13866
194
root 9.63266 18.138 11.0044 -168.332 4.42211 -180.758
lowerback 1.49881 0.212731 -11.3007
upperback 2.62784 0.653486 8.74239
thorax 1.79607 0.223048 16.2535
lowerneck -24.0378 -6.94561 -15.6787
upperneck 27.9958 -4.2335 4.25262
head 14.1384 -2.66818 3.57108
rclavicle 3.49861e-014 1.59028e-013
rhumerus -25.6063 -1.6507 -75.6619
rradius 26.4186
rwrist -5.53829
rhand -14.8748 10.9526
rfingers 7.12502
rthumb 11.2855 -18.7238
lclavicle 3.49861e-014 1.59028e-013
lhumerus -29.1775 3.7347 99.5149
lradius 31.91
lwrist -4.32889
lhand -3.13151 38.742
lfingers 7.12502
lthumb 22.5877 67.4405
rfemur -37.9089 -8.4531 24.7004
rtibia 39.8083
rfoot -19.1569 1.95318
rtoes -17.889
lfemur -7.57084 5.99454 -24.6019
ltibia 16.4956
lfoot -16.6732 0.781708
ltoes -7.17296
195
root 9.63525 18.1495 11.0311 -168.311 4.42021 -180.706
lowerback 1.7326 0.195025 -11.2719
upperback 2.59398 0.628895 8.87952
thorax 1.63679 0.233214 16.4012
lowerneck -24.0027 -6.82812 -15.7389
upperneck 27.8466 -3.99456 4.09034
head 14.0374 -2.58997 3.55759
rclavicle -2.38542e-015 7.79236e-014
rhumerus -25.7092 -1.58697 -75.4252
rradius 26.5594
rwrist -5.68889
rhand -15.3998 10.1511
rfingers 7.12502
rthumb 10.7791 -19.5523
lclavicle -2.38542e-015 7.79236e-014
lhumerus -29.5331 3.84342 99.7769
lradius 31.8369
lwrist -4.41503
lhand -2.75866 37.8543
lfingers 7.12502
lthumb 22.9456 66.5088
rfemur -37.9997 -8.4624 24.5639
rtibia 40.0198
rfoot -19.7896 2.2002
rtoes -21.8892
lfemur -7.66654 6.07766 -24.5552
ltibia 16.4354
lfoot -16.6046 0.785193
ltoes -7.02353
196
root 9.64379 18.1599 11.0521 -168.409 4.31138 -180.71
lowerback 2.01798 0.247533 -11.2802
upperback 2.59579 0.6929 8.96817
thorax 1.45454 0.287365 16.5116
lowerneck -23.8797 -6.78574 -15.7376
upperneck 27.6347 -3.91361 3.93829
head 13.9088 -2.57055 3.50636
rclavicle -1.11319e-014 -1.08139e-013
rhumerus -25.7833 -2.01463 -75.1032
rradius 26.5621
rwrist -5.74432
rhand -16.0494 9.6013
rfingers 7.12502
rthumb 10.1525 -20.1338
lclavicle -1.11319e-014 -1.08139e-013
lhumerus -29.8764 3.59522 100.077
lradius 31.6445
lwrist -4.54051
lhand -2.65576 37.5013
lfingers 7.12502
lthumb 23.0443 66.1435
rfemur -37.8843 -7.98412 24.1144
rtibia 40.3092
rfoot -20.3249 2.10658
rtoes -23.3472
lfemur -7.60837 6.0263 -24.5074
ltibia 16.3624
lfoot -16.5898 0.790218
ltoes -6.43998
197
root 9.65521 18.1684 11.0671 -168.538 4.31093 -180.6
lowerback 2.29037 0.252688 -11.2398
upperback 2.61817 0.700773 9.09682
thorax 1.32274 0.310258 16.6424
lowerneck -23.8267 -6.70018 -15.6848
upperneck 27.543 -3.71942 3.65065
head 13.8308 -2.51543 3.41654
rclavicle -1.82882e-014 -1.43125e-014
rhumerus -25.8811 -2.20249 -74.775
rradius 26.6316
rwrist -6.11544
rhand -16.0052 9.68199
rfingers 7.12502
rthumb 10.1952 -20.051
lclavicle -1.82882e-014 -1.43125e-014
lhumerus -30.2747 3.54695 100.319
lradius 31.4827
lwrist -4.64315
lhand -2.89308 37.4363
lfingers 7.12502
lthumb 22.8166 66.1068
rfemur -37.6943 -7.39707 23.7336
rtibia 40.6812
rfoot -21.0429 2.12547
rtoes -21.9192
lfemur -7.52046 5.9356 -24.3266
ltibia 16.3592
lfoot -16.5583 0.865812
ltoes -5.65536
198
root 9.66156 18.1672 11.0793 -168.573 4.54247 -180.482
lowerback 2.45326 0.261318 -11.1117
upperback 2.63333 0.718135 9.18855
thorax 1.2409 0.33378 16.6707
lowerneck -23.8157 -6.60191 -15.7704
upperneck 27.4518 -3.51657 3.55698
head 13.7683 -2.44626 3.42951
rclavicle 1.98785e-014 6.99722e-014
rhumerus -25.9477 -2.28706 -74.5338
rradius 26.7391
rwrist -6.31799
rhand -15.453 10.2926
rfingers 7.12502
rthumb 10.7278 -19.4135
lclavicle 1.98785e-014 6.99722e-014
lhumerus -30.5517 3.80833 100.438
lradius 31.1275
lwrist -4.9324
lhand -2.57215 37.6187
lfingers 7.12502
lthumb 23.1245 66.2509
rfemur -37.6772 -7.07688 23.5162
rtibia 41.1561
rfoot -21.7312 2.24858
rtoes -21.2975
lfemur -7.55883 5.95664 -24.2315
ltibia 16.4339
lfoot -16.4622 1.20053
ltoes -6.19773
199
root 9.66306 18.1634 11.0973 -168.344 4.81499 -180.486
lowerback 2.4127 0.496277 -10.8363
upperback 2.63791 1.03265 9.05045
thorax 1.1535 0.504174 16.3088
lowerneck -24.0039 -6.74836 -15.6603
upperneck 27.2959 -3.79658 3.6352
head 13.7675 -2.54946 3.38138
rclavicle -1.74931e-014 3.18055e-015
rhumerus -25.8889 -3.3976 -74.3457
rradius 26.6989
rwrist -6.04603
rhand -15.6155 10.3414
rfingers 7.12502
rthumb 10.5711 -19.3728
lclavicle -1.74931e-014 3.18055e-015
lhumerus -30.5588 3.08638 100.541
lradius 30.6817
lwrist -4.95462
lhand -1.53846 37.9615
lfingers 7.12502
lthumb 24.116 66.4658
rfemur -38.0419 -6.96372 23.2745
rtibia 41.6988
rfoot -22.1592 2.21934
rtoes -22.2216
lfemur -7.98413 6.0853 -24.3331
ltibia 16.6034
lfoot -16.4933 1.36171
ltoes -6.97036
200
root 9.66621 18.1675 11.1188 -168.095 5.06147 -180.539
lowerback 2.35553 0.736137 -10.7251
upperback 2.63357 1.34801 8.90638
thorax 1.06933 0.669997 16.0477
lowerneck -24.1499 -6.89644 -15.4377
upperneck 27.1025 -4.11793 3.6625
head 13.7414 -2.66528 3.28563
rclavicle 1.03368e-014 -1.1291e-013
rhumerus -25.8428 -4.43746 -74.1631
rradius 26.6244
rwrist -5.97742
rhand -16.1856 10.0411
rfingers 7.12502
rthumb 10.0211 -19.7004
lclavicle 1.03368e-014 -1.1291e-013
lhumerus -30.713 2.11955 100.695
lradius 30.6244
lwrist -4.71402
lhand -1.41155 38.1307
lfingers 7.12502
lthumb 24.2377 66.6188
rfemur -38.4072 -6.84296 22.9899
rtibia 42.2783
rfoot -22.397 1.74415
rtoes -24.3549
lfemur -8.44565 6.25698 -24.4517
ltibia 16.8033
lfoot -16.6663 1.12495
ltoes -6.6765
201
root 9.67871 18.1642 11.1405 -168.051 5.24542 -180.54
lowerback 2.40357 0.862789 -10.7844
upperback 2.69907 1.51677 8.89155
thorax 1.05282 0.753844 16.062
lowerneck -24.2844 -6.88817 -15.3028
upperneck 27.0241 -4.14392 3.63647
head 13.7313 -2.66768 3.24421
rclavicle 7.95139e-016 -1.59028e-015
rhumerus -25.7853 -5.10771 -73.9168
rradius 26.604
rwrist -6.17481
rhand -16.2234 9.98313
rfingers 7.12502
rthumb 9.98465 -19.76
lclavicle 7.95139e-016 -1.59028e-015
lhumerus -31.0081 1.70887 100.859
lradius 30.7611
lwrist -4.75954
lhand -1.53903 37.6366
lfingers 7.12502
lthumb 24.1155 66.141
rfemur -38.4702 -6.49122 22.7168
rtibia 42.9167
rfoot -22.5189 0.608016
rtoes -25.6206
lfemur -8.6716 6.65399 -24.4365
ltibia 17.0248
lfoot -16.7643 0.832282
ltoes -7.09565
202
root 9.69205 18.1642 11.1501 -168.178 5.17835 -180.347
lowerback 2.51494 0.951273 -10.4773
upperback 2.88001 1.65888 8.94896
thorax 1.1393 0.824894 15.9298
lowerneck -24.6555 -6.91575 -15.36
upperneck 27.1119 -4.1226 3.70623
head 13.8444 -2.65931 3.28249
rclavicle -1.11319e-014 -7.63333e-014
rhumerus -25.5531 -5.99058 -73.6158
rradius 26.511
rwrist -6.09419
rhand -16.0309 9.76615
rfingers 7.12502
rthumb 10.1703 -19.968
lclavicle -1.11319e-014 -7.63333e-014
lhumerus -31.0456 1.46794 101.018
lradius 30.5491
lwrist -5.16162
lhand -0.47816 37.4111
lfingers 7.12502
lthumb 25.1323 65.7768
rfemur -38.2091 -6.01928 22.4721
rtibia 43.582
rfoot -22.9174 -0.618786
rtoes -24.0653
lfemur -8.63724 6.75156 -24.1604
ltibia 17.1983
lfoot -16.8082 0.871936
ltoes -8.57907
203
root 9.70871 18.1776 11.1768 -167.945 4.94252 -180.225
lowerback 2.58498 0.885558 -10.2985
upperback 2.86643 1.59301 9.09622
thorax 1.109 0.806975 15.9961
lowerneck -25.0154 -6.92512 -15.7326
upperneck 27.1385 -3.98465 3.88832
head 13.9303 -2.61647 3.43964
rclavicle -1.19271e-014 -8.5875e-014
rhumerus -25.1102 -6.02508 -73.4024
rradius 26.161
rwrist -5.97767
rhand -16.4766 9.51606
rfingers 7.12502
rthumb 9.74033 -20.2387
lclavicle -1.19271e-014 -8.5875e-014
lhumerus -30.9458 1.64681 101.184
lradius 30.1289
lwrist -5.64755
lhand 0.170761 38.1846
lfingers 7.12502
lthumb 25.7539 66.4618
rfemur -38.383 -5.70475 22.1632
rtibia 44.2576
rfoot -23.1292 -1.35253
rtoes -20.3675
lfemur -9.09875 6.76173 -23.9502
ltibia 17.3759
lfoot -16.8643 0.570846
ltoes -8.71247
